<svg xmlns="http://www.w3.org/2000/svg" width="512" height="512" viewBox="0 0 512 512">
  <defs>
    <linearGradient id="bg5" x1="0" y1="0" x2="0" y2="1">
      <stop offset="0%" stop-color="#FFB347"/>
      <stop offset="100%" stop-color="#FF7A00"/>
    </linearGradient>
  </defs>
  <!-- Background -->
  <rect width="512" height="512" rx="112" fill="url(#bg5)"/>
  <!-- Chef hat (from existing ChefHatIcon in page.js) -->
  <g transform="translate(256, 240) scale(5)" fill="none" stroke="white" stroke-width="1.8" stroke-linecap="round" stroke-linejoin="round">
    <path d="M6 13.87A4 4 0 0 1 7.41 6a5.11 5.11 0 0 1 1.05-1.54 5 5 0 0 1 7.08 0A5.11 5.11 0 0 1 16.59 6 4 4 0 0 1 18 13.87V21H6Z" fill="white" fill-opacity="0.2"/>
    <path d="M6 13.87A4 4 0 0 1 7.41 6a5.11 5.11 0 0 1 1.05-1.54 5 5 0 0 1 7.08 0A5.11 5.11 0 0 1 16.59 6 4 4 0 0 1 18 13.87V21H6Z"/>
    <line x1="6" y1="17" x2="18" y2="17"/>
  </g>
  <!-- Price tag -->
  <g transform="translate(370, 130)">
    <circle r="48" fill="#FFD93D"/>
    <text x="0" y="-4" text-anchor="middle" font-family="Arial, sans-serif" font-weight="900" font-size="24" fill="#FF5722">SALE</text>
    <text x="0" y="22" text-anchor="middle" font-family="Arial, sans-serif" font-weight="800" font-size="20" fill="#FF5722">70%</text>
  </g>
  <!-- App name at bottom -->
  <text x="256" y="460" text-anchor="middle" font-family="'Noto Sans KR', Arial, sans-serif" font-weight="800" font-size="48" fill="white">저녁떨이</text>
</svg>
